<?xml version="1.0" encoding="UTF-8"?>
<svg xmlns="http://www.w3.org/2000/svg" viewBox="15 83 365 46">
  <defs>
    <style>
      .st0 {
        fill: #2e2d2b;
      }
    </style>
  </defs>
  <path class="st0" d="M20.51,106.09c0-11.79,8.22-20.38,19.59-20.38s19.59,8.59,19.59,20.38-8.22,20.37-19.59,20.37-19.59-8.59-19.59-20.37ZM40.1,117.76c5.87,0,10.16-5.02,10.16-11.79s-4.29-11.79-10.16-11.79-10.16,4.9-10.16,11.79,4.29,11.79,10.16,11.79Z"/>
  <path class="st0" d="M65.58,86.44h18.62c7.44,0,12.82,5.32,12.82,12.7s-5.68,12.58-13.54,12.58h-8.95v14.03h-8.95v-39.3h0ZM82.63,105.18c2.9,0,4.96-2.24,4.96-5.32s-2.06-5.32-4.96-5.32h-8.1v10.64h8.1Z"/>
  <path class="st0" d="M102.94,86.44h28.05v8.1h-19.1v7.98h15.72v6.29h-15.72v8.71h19.83v8.22h-28.78v-39.3Z"/>
  <path class="st0" d="M139.67,86.44h10.16l14.03,26.12v-26.12h8.95v39.3h-9.67l-14.51-26.6v26.6h-8.95v-39.3h-.01Z"/>
  <path class="st0" d="M190.71,86.44v15.6h15.48v-15.6h8.95v39.3h-8.95v-16.45h-15.48v16.45h-8.95v-39.3h8.95Z"/>
  <path class="st0" d="M221.08,106.09c0-11.79,8.22-20.38,19.59-20.38s19.59,8.59,19.59,20.38-8.22,20.37-19.59,20.37-19.59-8.59-19.59-20.37h0ZM240.67,117.76c5.87,0,10.16-5.02,10.16-11.79s-4.29-11.79-10.16-11.79-10.16,4.9-10.16,11.79,4.29,11.79,10.16,11.79Z"/>
  <path class="st0" d="M266.21,86.44h8.95v22.85c0,4.9,3.08,8.47,7.38,8.47s7.38-3.57,7.38-8.47v-22.85h8.95v23.1c0,9.79-6.83,16.93-16.32,16.93s-16.32-7.13-16.32-16.93v-23.1h-.02Z"/>
  <path class="st0" d="M322.72,118.48c2.96,0,5.8-1.21,5.8-3.87,0-7.5-22.25-5.32-22.25-17.9,0-6.41,5.68-11,14.51-11s16.2,4.54,16.69,10.76l-10.16,2.42c-.24-3.14-2.78-5.44-6.29-5.44-2.96,0-5.32,1.63-5.32,3.87,0,7.13,22.49,4.96,22.49,17.53,0,6.83-6.59,11.61-15.96,11.61s-17.17-5.26-17.41-12.39l10.4-2.18c.24,3.81,2.96,6.59,7.5,6.59h0Z"/>
  <path class="st0" d="M343.78,86.44h28.05v8.1h-19.1v7.98h15.72v6.29h-15.72v8.71h19.83v8.22h-28.78v-39.3h0Z"/>
</svg>